<svg width="1440" height="1024" viewBox="0 0 1440 1024" fill="none" xmlns="http://www.w3.org/2000/svg">
<g clip-path="url(#clip0_2_2)">
<rect width="1440" height="1024" fill="white"/>
<path d="M103.78 805.756L26.4592 813.769C26.1741 813.787 25.7376 813.956 25.4347 814.258L-1.82452 841.49C-2.1274 841.793 -2.29665 842.229 -2.33223 842.799L-2.72191 867.245C-2.77528 868.1 -2.10705 868.769 -1.10034 868.565L65.4851 857.378C65.9216 857.209 66.3582 857.04 66.661 856.738L82.2676 834.197L82.4191 834.046L105.046 808.234C105.821 807.193 105.072 805.535 103.78 805.756Z" fill="#172B4D"/>
<path d="M80.7692 672.176L-6.4775 684.224L-31.0636 720.279L-14.8924 810.241L9.53995 828.601L60.1335 821.628L70.8631 794.872L98.4691 764.888L80.7692 672.176Z" fill="white" stroke="#36B37E" stroke-width="1.55764" stroke-miterlimit="10" stroke-linejoin="round"/>
<path d="M70.863 794.871L29.8893 716.054L80.7691 672.175L98.4689 764.887L70.863 794.871Z" fill="#C5E9DA" stroke="#36B37E" stroke-width="1.55764" stroke-miterlimit="10" stroke-linejoin="round"/>
<path d="M60.1339 821.628L52.2874 758.9L70.8635 794.872L60.1339 821.628Z" fill="white" stroke="#36B37E" stroke-width="1.55764" stroke-miterlimit="10" stroke-linejoin="round"/>
<path d="M-31.0635 720.279L29.8895 716.055" stroke="#36B37E" stroke-width="1.55764" stroke-miterlimit="10" stroke-linejoin="round"/>
<path d="M41.8181 705.742L24.9982 708.11L19.5903 716.72L36.979 729.554L41.8181 705.742Z" fill="#C5E9DA" stroke="#36B37E" stroke-width="1.55764" stroke-miterlimit="10" stroke-linejoin="round"/>
<mask id="mask0_2_2" style="mask-type:alpha" maskUnits="userSpaceOnUse" x="-38" y="664" width="117" height="63">
<path d="M6.34589 699.747L17.536 702.468L25.5801 694.165L36.2 696.92L28.1736 704.939L38.6599 707.561L30.7672 715.713L20.1295 713.242L9.20675 710.789L0.726105 719.261L-10.7668 716.843L-19.5504 725.618L-31.6135 723.234L-22.3934 714.291L-13.6099 705.516L-2.13476 708.219L6.34589 699.747Z" fill="#C5E9DA"/>
<path d="M14.8089 691.559L22.9867 683.39L33.6066 686.146L25.5803 694.164L14.8089 691.559Z" fill="#36B37E"/>
<path d="M-4.8442 697.026L3.7701 688.688L14.8087 691.56L6.34588 699.747L-4.8442 697.026Z" fill="#36B37E"/>
<path d="M-7.55363 685.833L1.06067 677.495L12.233 680.501L3.77009 688.688L-7.55363 685.833Z" fill="#36B37E"/>
<path d="M46.4011 699.56L36.1999 696.92L43.9411 688.919L33.6063 686.146L41.4812 678.279L51.5309 681.07L61.2956 683.878L53.9909 691.71L63.7733 694.233L73.4043 696.908L66.251 704.588L56.4686 702.065L48.7273 710.066L38.6598 707.56L46.4011 699.56Z" fill="#5E78A5"/>
<path d="M58.7949 712.571L51.3387 720.554L41.1198 718.2L48.7274 710.065L58.7949 712.571Z" fill="#36B37E"/>
<path d="M78.2132 679.006L71.0599 686.686L61.2953 683.878L68.7336 676.18L78.2132 679.006Z" fill="#36B37E"/>
<path d="M22.9859 683.391L12.2323 680.502L20.2586 672.483L28.4186 664.599L38.8871 667.506L49.0526 670.715L41.4806 678.28L31.0122 675.373L22.9859 683.391Z" fill="#36B37E"/>
<path d="M-1.64873 666.303L9.37211 669.46L1.06069 677.495L-10.3967 674.507L-1.64873 666.303Z" fill="#36B37E"/>
<path d="M41.1196 718.201L33.3606 726.486L22.5714 724.167L30.767 715.712L41.1196 718.201Z" fill="#36B37E"/>
</mask>
<g mask="url(#mask0_2_2)">
<path d="M-6.91253 684.659L80.0123 672.932L38.7966 707.485L24.1709 709.499L18.6428 717.646L-31.3022 720.518L-6.91253 684.659Z" fill="#36B37E" stroke="#36B37E" stroke-width="1.55764" stroke-miterlimit="10" stroke-linejoin="round"/>
</g>
<path d="M304.531 856.423L308.542 848.078C308.644 847.867 308.817 847.698 309.03 847.601L369.722 820.067C370.017 819.933 370.358 819.951 370.638 820.114L400.959 837.795C401.73 838.245 401.571 839.402 400.708 839.627L323.934 859.634C323.819 859.664 323.701 859.673 323.583 859.662L305.333 857.852C304.642 857.783 304.23 857.049 304.531 856.423Z" fill="#172B4D"/>
<g clip-path="url(#clip1_2_2)">
<path d="M308.165 791.843L291.146 837.929L310.986 851.127L368.573 823.775L386.237 800.003L343.731 786.713L308.165 791.843Z" fill="white" stroke="#36B37E" stroke-width="1.63467" stroke-miterlimit="10" stroke-linejoin="round"/>
<path d="M328.19 810.382L330.083 814.368L368.573 823.775L371.205 820.173L386.237 800.003L343.731 786.713L328.19 810.382Z" fill="#C5E9DA" stroke="#36B37E" stroke-width="1.63467" stroke-miterlimit="10" stroke-linejoin="round"/>
<path d="M343.731 786.713L330.342 808.816L291.145 837.929" fill="white"/>
<path d="M343.731 786.713L330.342 808.816L291.145 837.929" stroke="#36B37E" stroke-width="1.63467" stroke-miterlimit="10" stroke-linejoin="round"/>
<path d="M323.217 814.01L325.041 803.372L335.185 800.725L330.083 814.369L323.217 814.01Z" fill="#172B4D" stroke="#36B37E" stroke-width="1.63467" stroke-miterlimit="10" stroke-linejoin="round"/>
<path d="M368.573 823.775L330.083 814.368" stroke="#36B37E" stroke-width="1.63467" stroke-miterlimit="10" stroke-linejoin="round"/>
<path d="M355.258 820.508L361.947 815.159L361.224 822.018L356.103 825.717L355.258 820.508Z" fill="white" stroke="#36B37E" stroke-width="1.63467" stroke-miterlimit="10" stroke-linejoin="round"/>
<path d="M361.947 815.159L360.298 791.874" stroke="#36B37E" stroke-width="1.63467" stroke-miterlimit="10" stroke-linejoin="round"/>
<mask id="mask1_2_2" style="mask-type:alpha" maskUnits="userSpaceOnUse" x="290" y="813" width="80" height="39">
<path d="M291.145 837.929L323.217 814.01L334.524 815.336L368.573 823.775L364.439 825.739L310.986 851.127L291.145 837.929Z" fill="white" stroke="#36B37E" stroke-width="1.63467" stroke-miterlimit="10" stroke-linejoin="round"/>
</mask>
<g mask="url(#mask1_2_2)">
<path d="M324.141 825.535L328.534 816.209L338.322 815.859L342.433 806.893L333.103 807.252L337.399 798.199L327.796 798.461L323.5 807.515L318.834 816.744L308.775 816.997L304.012 826.499L293.583 826.927L288.354 836.876L298.968 836.36L309.309 835.746L314.169 825.973L324.141 825.535Z" fill="#36B37E"/>
<path d="M333.928 825.184L343.628 824.649L347.652 815.499L338.321 815.858L333.928 825.184Z" fill="#36B37E"/>
<path d="M319.466 835.221L329.535 834.51L333.928 825.184L324.141 825.535L319.466 835.221Z" fill="#C5E9DA"/>
<path d="M324.86 844.196L334.744 843.573L339.235 833.975L329.535 834.51L324.86 844.196Z" fill="#36B37E"/>
<path d="M314.791 844.906L319.466 835.22L309.309 835.746L304.45 845.52L299.396 855.837L309.835 854.952L320.176 854.339L324.86 844.196L314.791 844.906Z" fill="#36B37E"/>
<path d="M346.633 798.111L342.433 806.893L351.764 806.533L347.652 815.499L356.983 815.139L360.91 806.261L364.741 797.655L355.779 797.839L359.697 789.418L363.431 781.084L354.654 781.181L350.736 789.602L341.502 789.69L337.399 798.199L346.633 798.111Z" fill="#36B37E"/>
<path d="M343.628 824.65L339.235 833.975L348.75 833.528L358.177 832.896L362.202 823.746L366.129 814.868L356.983 815.139L352.959 824.29L343.628 824.65Z" fill="#36B37E"/>
<path d="M340.226 852.733L344.629 842.951L334.744 843.573L330.342 853.356L340.226 852.733Z" fill="#36B37E"/>
<path d="M315.492 864.481L325.658 863.499L330.342 853.356L320.176 854.339L315.492 864.481Z" fill="#36B37E"/>
</g>
</g>
<path d="M1316.99 944.411L1498.65 915.181L1599.2 899.002L1542.97 840.21L1278.64 882.742L1286.97 910.28L1316.99 944.411Z" fill="#172B4D"/>
<path d="M1480.32 463.658L1534.39 496.212L1384.17 920.308L1316.99 944.411L1286.97 910.28L1278.64 882.743L1377.23 640.675L1401.17 618.489L1391.51 595.52L1435.87 482.27L1480.32 463.658Z" fill="white"/>
<mask id="mask2_2_2" style="mask-type:alpha" maskUnits="userSpaceOnUse" x="1278" y="463" width="257" height="482">
<path d="M1480.32 463.658L1534.39 496.212L1384.17 920.308L1316.99 944.411L1286.97 910.28L1278.64 882.743L1377.23 640.675L1401.17 618.489L1391.51 595.52L1435.87 482.27L1480.32 463.658Z" fill="white"/>
</mask>
<g mask="url(#mask2_2_2)">
<path d="M1369.47 683.635L1376.96 661.803L1398 658.647L1405.15 637.557L1384.33 640.677L1391.56 620.035L1370.71 622.931L1363.07 643.87L1355.29 665.29L1333.35 668.59L1325 690.789L1302.25 694.68L1293.37 717.88L1316.54 713.695L1339.3 709.804L1347.35 687.194L1369.47 683.635Z" fill="#C5E9DA"/>
<path d="M1390.88 679.96L1411.89 676.58L1418.78 655.303L1398 658.647L1390.88 679.96Z" fill="#36B37E"/>
<path d="M1361.57 705.762L1383.43 702.015L1390.88 679.96L1369.47 683.635L1361.57 705.762Z" fill="#36B37E"/>
<path d="M1375.82 724.553L1397.65 720.583L1404.84 698.34L1383.43 702.015L1375.82 724.553Z" fill="#172B4D"/>
<path d="M1353.59 728.819L1361.57 705.762L1339.3 709.804L1330.87 732.932L1322.33 756.767L1345.42 752.134L1368.1 747.797L1375.82 724.553L1353.59 728.819Z" fill="#172B4D"/>
<path d="M1411.96 617.21L1405.15 637.557L1425.52 634.509L1418.78 655.303L1439.15 652.255L1445.7 631.72L1451.88 611.704L1432.14 614.421L1438.58 594.592L1444.9 575.469L1425.32 577.704L1418.81 597.086L1398.63 599.875L1391.56 620.035L1411.96 617.21Z" fill="#36B37E"/>
<path d="M1405.29 580.01L1385.07 582.575L1377.96 602.512L1398.63 599.875L1405.29 580.01Z" fill="#172B4D"/>
<path d="M1411.89 676.58L1404.84 698.34L1425.81 694.737L1446.3 690.983L1452.74 669.778L1459.04 649.055L1439.15 652.255L1432.67 673.237L1411.89 676.58Z" fill="#36B37E"/>
<path d="M1411.91 739.374L1419.03 716.685L1397.65 720.583L1390.12 743.568L1411.91 739.374Z" fill="#36B37E"/>
<path d="M1360.01 771.56L1382.43 767.035L1390.12 743.568L1368.1 747.797L1360.01 771.56Z" fill="#36B37E"/>
<path d="M1377.96 602.512L1357.08 605.185L1349.37 625.677L1370.71 622.931L1377.96 602.512Z" fill="#36B37E"/>
</g>
<path d="M1480.32 463.658L1316.99 944.411L1384.17 920.308L1534.39 496.212L1480.32 463.658Z" fill="#C5E9DA"/>
<path d="M1480.32 463.658L1534.39 496.212L1384.17 920.308L1316.99 944.411L1286.97 910.28L1278.64 882.743L1377.23 640.675L1401.17 618.489L1391.51 595.52L1435.87 482.27L1480.32 463.658Z" stroke="#36B37E" stroke-width="1.57158" stroke-miterlimit="10" stroke-linejoin="round"/>
<path d="M1422.1 634.602L1443.03 650.714L1415.1 655.208L1422.1 634.602Z" fill="white"/>
<path d="M1479.86 650.288L1443.03 650.714L1422.1 634.602L1401.17 618.489" stroke="#36B37E" stroke-width="1.57158" stroke-miterlimit="10" stroke-linejoin="round"/>
<path d="M1443.03 650.714L1415.1 655.208L1386.98 738.342" stroke="#36B37E" stroke-width="1.57158" stroke-miterlimit="10" stroke-linejoin="round"/>
<path d="M1515.29 549.934L1468.82 497.595L1425.15 509.664" stroke="#36B37E" stroke-width="1.57158" stroke-miterlimit="10" stroke-linejoin="round"/>
<path d="M1438.08 505.979L1428.88 500.125" stroke="#36B37E" stroke-width="1.57158" stroke-miterlimit="10" stroke-linejoin="round"/>
<path d="M1379.98 758.949L1343.72 723.072L1278.64 882.743L1286.97 910.28L1316.99 944.411L1379.98 758.949Z" fill="white" stroke="#36B37E" stroke-width="1.57158" stroke-miterlimit="10" stroke-linejoin="round"/>
<path d="M1435.05 779.196L1375.78 771.313L1371.03 750.306L1382.16 755.39L1435.05 779.196Z" fill="#172B4D"/>
</g>
<defs>
<clipPath id="clip0_2_2">
<rect width="1440" height="1024" fill="white"/>
</clipPath>
<clipPath id="clip1_2_2">
<rect width="105.273" height="67.1849" fill="white" transform="translate(274 807.165) rotate(-25.4057)"/>
</clipPath>
</defs>
</svg>
